<?xml version="1.0" encoding="utf-8"?>
<!-- Generator: Adobe Illustrator 23.0.1, SVG Export Plug-In . SVG Version: 6.00 Build 0)  -->
<svg version="1.1" id="Layer_1" xmlns="http://www.w3.org/2000/svg" xmlns:xlink="http://www.w3.org/1999/xlink" x="0px" y="0px"
	 viewBox="0 0 287.91 287.91" style="enable-background:new 0 0 287.91 287.91;" xml:space="preserve">
<style type="text/css">
	.st0{stroke:#000000;stroke-miterlimit:10;}
	.st1{fill:none;stroke:#000000;stroke-miterlimit:10;}
</style>
<path class="st0" d="M158.11,138.44l0.04-12.44c0,0-0.06-3.99,3.92-3.99s4.01,3.96,4.01,3.96l-0.03,12.47h12.48
	c0,0,3.98,0.1,3.98,3.98c0,3.88-3.97,3.97-3.97,3.97h-12.44v12.47c0,0,0,3.98-3.98,3.98c-3.98,0-3.97-3.97-3.97-3.97v-12.44h-12.47
	c0,0-3.98-0.02-3.98-3.98s3.97-3.97,3.97-3.97L158.11,138.44z"/>
<polygon class="st0" points="63.13,59.55 68.01,59.55 82.84,86.77 82.9,86.77 97.42,59.55 102.43,59.55 102.43,104.17 98.55,104.17 
	98.55,66.37 98.42,66.37 84.34,92.15 81.21,92.15 67.13,66.43 66.95,66.43 66.95,104.17 63.13,104.17 "/>
<polygon class="st0" points="119.19,59.55 128.89,59.55 128.89,77.2 145.1,77.2 145.1,59.55 154.86,59.55 154.86,104.17 
	145.1,104.17 145.1,85.71 128.89,85.71 128.89,104.17 119.19,104.17 "/>
<path class="st0" d="M167.08,89.15V75.26c0-10.76,8.45-16.46,18.27-16.46c8.57,0,17.58,4.57,17.58,14.71v1.75h-9.2v-0.88
	c0-5.19-4.57-7.32-8.32-7.32c-4.07,0-8.64,2.19-8.64,7.88v13.89c0,4.94,4,7.82,8.89,7.82c3.75,0,8.07-2.13,8.07-7.38v-0.81h9.2v1.75
	c0,10.14-8.7,14.71-17.33,14.71C175.84,104.92,167.08,99.72,167.08,89.15"/>
<rect x="214.65" y="59.55" class="st0" width="9.7" height="44.62"/>
<path class="st0" d="M194.63,122.12h17.96c9.82,0,17.9,5.82,17.9,16.02v12.2c0,10.83-8.7,16.39-17.77,16.39h-18.08V122.12z
	 M212.21,158.54c4.13,0,8.57-2.44,8.57-7.88v-12.58c0-4.88-4.07-7.76-8.89-7.76h-7.57v28.22H212.21z"/>
<rect x="47.72" y="180.27" class="st0" width="195.58" height="3.85"/>
<path d="M224.19,215.08h2.95v-4.9c0-1.63,1.27-2.15,2.5-2.15c0.27,0,0.81,0.04,1.25,0.11v-2.54c-0.29-0.07-0.66-0.09-0.93-0.09
	c-1.16,0-2.36,0.81-2.86,1.72h-0.02v-1.56h-2.9V215.08z M216.93,209.39v-0.25c0-1.02,0.72-1.49,1.5-1.49c0.79,0,1.45,0.45,1.45,1.43
	v0.3H216.93z M218.54,215.31c1.54,0,2.99-0.48,3.95-1.47l-1.13-1.66c-0.47,0.41-1.63,0.86-2.45,0.86c-0.97,0-1.99-0.48-1.99-1.54
	v-0.39h5.74v-1.81c0-2.56-2.02-3.83-4.17-3.83c-2.33,0-4.58,1.36-4.58,4.22v1.74C213.92,214.17,216.18,215.31,218.54,215.31
	 M210.77,215.26c0.57,0,1.4-0.11,2.08-0.3v-2.31c-0.39,0.07-0.72,0.09-1.15,0.09c-0.57,0-0.8-0.29-0.8-0.81v-3.99h1.99v-2.17h-1.99
	v-2.65h-2.95v2.65h-1.2v2.17h1.2v4.74C207.95,214.63,209.34,215.26,210.77,215.26 M199.72,215.28c1.16,0,2.17-0.5,2.85-1.48h0.05
	v1.29h2.88v-9.41h-2.95v5.3c0,1.32-0.63,1.97-1.52,1.97c-1.07,0-1.45-0.8-1.45-1.77v-5.49h-2.95v6.49
	C196.62,214.26,198.04,215.28,199.72,215.28 M190.56,213.13c-0.79,0-1.61-0.47-1.61-1.5v-2.17c0-1.31,0.84-1.7,1.59-1.7
	c0.84,0,1.54,0.54,1.54,1.52v2.33C192.08,212.7,191.3,213.13,190.56,213.13 M186,218.46h2.95v-4.22h0.05
	c0.48,0.61,1.38,1.07,2.29,1.07c2.08,0,3.76-1.32,3.76-3.51v-2.84c0-2.18-1.38-3.49-3.49-3.49c-0.89,0-1.93,0.45-2.65,1.32h-0.02
	v-1.13H186V218.46z M169.54,215.08h2.95v-5.44c0-1.29,0.79-1.82,1.45-1.82c1.2,0,1.43,0.93,1.43,1.77v5.49h2.95v-5.39
	c0-1.13,0.54-1.88,1.45-1.88c1.15,0,1.41,0.88,1.41,1.75v5.51h2.95v-6.64c0-2.13-1.58-2.97-3.08-2.97c-1.29,0-2.31,0.5-3.02,1.47
	H178c-0.52-1.06-1.57-1.47-2.7-1.47c-1.18,0-2.15,0.45-2.85,1.43h-0.04v-1.24h-2.88V215.08z M163.51,213.06
	c-0.95,0-1.54-0.55-1.54-1.47v-2.31c0-1.02,0.66-1.56,1.5-1.56c0.88,0,1.52,0.59,1.52,1.5v2.33
	C164.99,212.56,164.35,213.06,163.51,213.06 M163.51,215.3c2.11,0,4.47-1.18,4.47-3.92v-1.95c0-2.72-2.27-3.95-4.54-3.95
	c-2.18,0-4.46,1.29-4.46,4.01v2.04C158.98,214.24,161.25,215.3,163.51,215.3 M153.54,215.31c2.2,0,4.29-1.11,4.29-3.43v-0.43h-2.86
	v0.23c0,0.98-0.66,1.39-1.41,1.39c-0.95,0-1.56-0.55-1.56-1.52v-2.33c0-1.07,0.7-1.52,1.52-1.52c0.75,0,1.45,0.41,1.45,1.4v0.27
	h2.86v-0.39c0-2.33-2.13-3.51-4.33-3.51c-2.27,0-4.53,1.32-4.53,4.1v1.88C148.98,214.15,151.29,215.31,153.54,215.31 M142.16,210.93
	h5.35v-2.41h-5.35V210.93z M131.66,215.08h2.95v-5.31c0-1.31,0.64-1.95,1.52-1.95c1.09,0,1.45,0.81,1.45,1.77v5.49h2.95v-6.51
	c0-2.09-1.41-3.1-3.09-3.1c-1.16,0-2.15,0.43-2.85,1.38h-0.04v-1.18h-2.9V215.08z M125.32,213.17c-0.91,0-1.31-0.41-1.31-1.02
	c0-0.77,0.63-1.02,1.48-1.02h1.41v0.54C126.91,212.56,126.41,213.17,125.32,213.17 M124.17,215.28c0.95,0,2.07-0.2,2.86-1.25h0.07
	l0.11,1.06h2.81c-0.07-0.18-0.16-1.36-0.16-2.08v-4.29c0-2.38-2.09-3.24-4.26-3.24c-2.15,0-4.19,0.93-4.19,2.97v0.34h2.63v-0.27
	c0-0.5,0.45-0.95,1.4-0.95c0.95,0,1.47,0.41,1.47,1.18v0.73h-1.63c-1.9,0-4.22,0.82-4.22,3.04
	C121.06,214.29,122.37,215.28,124.17,215.28 M105.1,215.08h2.95v-5.44c0-1.29,0.79-1.82,1.45-1.82c1.2,0,1.43,0.93,1.43,1.77v5.49
	h2.95v-5.39c0-1.13,0.54-1.88,1.45-1.88c1.15,0,1.41,0.88,1.41,1.75v5.51h2.95v-6.64c0-2.13-1.57-2.97-3.08-2.97
	c-1.29,0-2.31,0.5-3.02,1.47h-0.04c-0.52-1.06-1.57-1.47-2.7-1.47c-1.18,0-2.15,0.45-2.85,1.43h-0.04v-1.24h-2.88V215.08z
	 M97.47,215.28c1.16,0,2.17-0.5,2.84-1.48h0.05v1.29h2.88v-9.41h-2.95v5.3c0,1.32-0.63,1.97-1.52,1.97c-1.07,0-1.45-0.8-1.45-1.77
	v-5.49h-2.95v6.49C94.38,214.26,95.79,215.28,97.47,215.28 M83.74,215.08h2.95v-5.31c0-1.31,0.64-1.95,1.52-1.95
	c1.09,0,1.45,0.81,1.45,1.77v5.49h2.95v-6.51c0-2.09-1.41-3.1-3.1-3.1c-1.13,0-2.09,0.45-2.77,1.43H86.7v-4.58h-2.95V215.08z"/>
<path d="M221.34,238.48h2.95v-5.31c0-1.31,0.64-1.95,1.52-1.95c1.09,0,1.45,0.81,1.45,1.77v5.49h2.95v-6.51
	c0-2.09-1.41-3.1-3.09-3.1c-1.16,0-2.15,0.43-2.85,1.38h-0.04v-1.18h-2.9V238.48z M215.02,235.88c-0.88,0-1.56-0.52-1.56-1.5v-1.65
	c0-1.16,0.75-1.61,1.49-1.61c0.79,0,1.63,0.45,1.63,1.49v1.7C216.58,235.47,215.78,235.88,215.02,235.88 M214.67,242
	c3.08-0.02,4.83-1.79,4.83-4.46v-8.48h-2.83v0.91h-0.04c-0.54-0.66-1.52-1.11-2.47-1.11c-2.06,0-3.67,1.41-3.67,3.6v2.16
	c0,2.18,1.31,3.47,3.53,3.47c1,0,1.84-0.3,2.52-1.16h0.04v0.89c0,1.13-0.64,1.9-1.95,1.9c-0.84,0-1.72-0.27-2.41-0.86l-1.57,1.65
	C211.63,241.54,213.13,241.97,214.67,242 M205.95,227.94h2.95v-2.63h-2.95V227.94z M205.95,238.48h2.95v-9.41h-2.95V238.48z
	 M200.24,238.69c1.99,0,4.33-1,4.33-3.29c0-1.34-0.91-2.33-2.59-2.68l-1.63-0.34c-0.64-0.12-1.32-0.21-1.32-0.72
	c0-0.52,0.47-0.75,1.25-0.75c0.73,0,1.56,0.27,2.17,0.82l1.68-1.63c-1.06-0.89-2.09-1.25-3.9-1.25c-2.33,0-3.95,1.36-3.95,3.22
	c0,1.41,0.93,2.17,2.43,2.52c0.95,0.27,1.61,0.36,1.66,0.38c0.75,0.14,1.18,0.29,1.18,0.84c0,0.61-0.77,0.79-1.45,0.79
	c-1.02,0-2.04-0.48-2.7-1.13l-1.54,1.77C197.11,238.41,198.54,238.69,200.24,238.69 M189.05,232.79v-0.25c0-1.02,0.72-1.49,1.5-1.49
	c0.79,0,1.45,0.45,1.45,1.43v0.3H189.05z M190.66,238.71c1.54,0,2.99-0.48,3.96-1.47l-1.13-1.66c-0.47,0.41-1.63,0.86-2.45,0.86
	c-0.97,0-1.99-0.48-1.99-1.54v-0.39h5.74v-1.81c0-2.56-2.02-3.83-4.17-3.83c-2.33,0-4.58,1.36-4.58,4.22v1.73
	C186.04,237.56,188.3,238.71,190.66,238.71 M179.96,236.4c-0.84,0-1.56-0.55-1.56-1.54v-2.2c0-1.16,0.79-1.63,1.52-1.63
	c0.79,0,1.61,0.47,1.61,1.5v2.25C181.53,235.95,180.71,236.4,179.96,236.4 M178.92,238.69c0.91,0,2.02-0.5,2.63-1.32h0.05v1.11h2.88
	v-12.76h-2.95v4.19h-0.04c-0.54-0.64-1.45-1.04-2.36-1.04c-2.08,0-3.7,1.31-3.7,3.49v2.84
	C175.43,237.39,176.81,238.69,178.92,238.69 M164.59,237.65h1.81v-3.95h3.94v-1.77h-3.94v-3.97h-1.81v3.97h-3.95v1.77h3.95V237.65z
	 M146.42,238.48h2.95v-5.31c0-1.31,0.64-1.95,1.52-1.95c1.09,0,1.45,0.81,1.45,1.77v5.49h2.95v-6.51c0-2.09-1.41-3.1-3.09-3.1
	c-1.16,0-2.15,0.43-2.84,1.38h-0.04v-1.18h-2.9V238.48z M140.39,236.46c-0.95,0-1.54-0.55-1.54-1.47v-2.31
	c0-1.02,0.66-1.56,1.5-1.56c0.88,0,1.52,0.59,1.52,1.5v2.33C141.87,235.95,141.23,236.46,140.39,236.46 M140.39,238.69
	c2.11,0,4.47-1.18,4.47-3.92v-1.95c0-2.72-2.27-3.95-4.54-3.95c-2.18,0-4.46,1.29-4.46,4.01v2.04
	C135.86,237.64,138.13,238.69,140.39,238.69 M131.36,227.94h2.95v-2.63h-2.95V227.94z M131.36,238.48h2.95v-9.41h-2.95V238.48z
	 M127.82,238.66c0.57,0,1.39-0.11,2.07-0.3v-2.31c-0.39,0.07-0.72,0.09-1.14,0.09c-0.57,0-0.8-0.29-0.8-0.81v-3.99h1.99v-2.17h-1.99
	v-2.65h-2.95v2.65h-1.2v2.17h1.2v4.74C124.99,238.03,126.38,238.66,127.82,238.66 M118.56,238.71c2.2,0,4.29-1.11,4.29-3.44v-0.43
	h-2.86v0.23c0,0.98-0.66,1.4-1.41,1.4c-0.95,0-1.56-0.55-1.56-1.52v-2.33c0-1.07,0.7-1.52,1.52-1.52c0.75,0,1.45,0.41,1.45,1.4v0.27
	h2.86v-0.39c0-2.33-2.13-3.51-4.33-3.51c-2.27,0-4.53,1.32-4.53,4.1v1.88C114,237.55,116.3,238.71,118.56,238.71 M108.01,236.56
	c-0.91,0-1.31-0.41-1.31-1.02c0-0.77,0.63-1.02,1.49-1.02h1.41v0.54C109.6,235.95,109.1,236.56,108.01,236.56 M106.87,238.67
	c0.95,0,2.08-0.2,2.86-1.25h0.07l0.11,1.06h2.81c-0.07-0.18-0.16-1.36-0.16-2.08v-4.29c0-2.38-2.09-3.24-4.26-3.24
	c-2.15,0-4.19,0.93-4.19,2.97v0.34h2.63v-0.27c0-0.5,0.45-0.95,1.4-0.95c0.95,0,1.47,0.41,1.47,1.18v0.73h-1.63
	c-1.9,0-4.22,0.82-4.22,3.04C103.75,237.69,105.06,238.67,106.87,238.67 M96.25,238.48h2.95v-4.9c0-1.63,1.27-2.15,2.5-2.15
	c0.27,0,0.8,0.04,1.25,0.11v-2.54c-0.29-0.07-0.66-0.09-0.93-0.09c-1.16,0-2.36,0.81-2.86,1.72h-0.02v-1.56h-2.9V238.48z
	 M88.98,232.79v-0.25c0-1.02,0.72-1.49,1.5-1.49c0.79,0,1.45,0.45,1.45,1.43v0.3H88.98z M90.6,238.71c1.54,0,2.99-0.48,3.95-1.47
	l-1.13-1.66c-0.47,0.41-1.63,0.86-2.45,0.86c-0.97,0-1.99-0.48-1.99-1.54v-0.39h5.74v-1.81c0-2.56-2.02-3.83-4.17-3.83
	c-2.33,0-4.58,1.36-4.58,4.22v1.73C85.98,237.56,88.23,238.71,90.6,238.71 M82.83,238.66c0.57,0,1.39-0.11,2.07-0.3v-2.31
	c-0.39,0.07-0.72,0.09-1.14,0.09c-0.57,0-0.81-0.29-0.81-0.81v-3.99h1.99v-2.17h-1.99v-2.65H80v2.65h-1.2v2.17H80v4.74
	C80,238.03,81.4,238.66,82.83,238.66 M68.73,238.48h2.95v-5.31c0-1.31,0.64-1.95,1.52-1.95c1.09,0,1.45,0.81,1.45,1.77v5.49h2.95
	v-6.51c0-2.09-1.41-3.1-3.1-3.1c-1.16,0-2.15,0.43-2.85,1.38h-0.04v-1.18h-2.9V238.48z M63.93,227.94h2.95v-2.63h-2.95V227.94z
	 M63.93,238.48h2.95v-9.41h-2.95V238.48z"/>
<rect x="0" class="st1" width="287.91" height="287.91"/>
</svg>
